<?xml version="1.0" encoding="UTF-8" standalone="no"?>
<svg
   xmlns:dc="http://purl.org/dc/elements/1.1/"
   xmlns:cc="http://creativecommons.org/ns#"
   xmlns:rdf="http://www.w3.org/1999/02/22-rdf-syntax-ns#"
   xmlns:svg="http://www.w3.org/2000/svg"
   xmlns="http://www.w3.org/2000/svg"
   xmlns:sodipodi="http://sodipodi.sourceforge.net/DTD/sodipodi-0.dtd"
   xmlns:inkscape="http://www.inkscape.org/namespaces/inkscape"
   version="1.1"
   viewBox="0 0 946 470"
   stroke-miterlimit="10"
   id="svg2"
   inkscape:version="0.91 r13725"
   sodipodi:docname="Praesi_01.svg"
   width="946"
   height="470"
   style="fill:none;stroke:none;stroke-linecap:square;stroke-miterlimit:10">
  <metadata
     id="metadata222">
    <rdf:RDF>
      <cc:Work
         rdf:about="">
        <dc:format>image/svg+xml</dc:format>
        <dc:type
           rdf:resource="http://purl.org/dc/dcmitype/StillImage" />
        <dc:title />
      </cc:Work>
    </rdf:RDF>
  </metadata>
  <defs
     id="defs220" />
  <sodipodi:namedview
     pagecolor="#ffffff"
     bordercolor="#666666"
     borderopacity="1"
     objecttolerance="10"
     gridtolerance="10"
     guidetolerance="10"
     inkscape:pageopacity="0"
     inkscape:pageshadow="2"
     inkscape:window-width="1600"
     inkscape:window-height="876"
     id="namedview218"
     showgrid="false"
     inkscape:zoom="3.5119637"
     inkscape:cx="380.17133"
     inkscape:cy="432.04093"
     inkscape:window-x="0"
     inkscape:window-y="24"
     inkscape:window-maximized="1"
     inkscape:current-layer="svg2" />
  <clipPath
     id="g1570baebbe_0_0.0">
    <path
       d="M 0,0 960,0 960,540 0,540 0,0 Z"
       id="path5"
       inkscape:connector-curvature="0"
       style="clip-rule:nonzero" />
  </clipPath>
  <path
     style="fill:#ffffff;fill-rule:nonzero"
     inkscape:connector-curvature="0"
     id="path9"
     d="m 0,-70 960,0 0,540 -960,0 z" />
  <path
     style="fill:#000000;fill-opacity:0;fill-rule:nonzero"
     inkscape:connector-curvature="0"
     id="path17"
     d="m -16.371461,66.6004 7.5590561,0" />
  <path
     style="fill-rule:nonzero;stroke:#ffffff;stroke-width:1;stroke-linecap:butt;stroke-linejoin:round"
     inkscape:connector-curvature="0"
     id="path19"
     d="m -16.371461,66.6004 7.5590561,0" />
  <path
     style="fill:#000000;fill-opacity:0;fill-rule:nonzero"
     inkscape:connector-curvature="0"
     id="path21"
     d="m -16.371461,244.26716 7.5590561,0" />
  <path
     style="fill-rule:nonzero;stroke:#ffffff;stroke-width:1;stroke-linecap:butt;stroke-linejoin:round"
     inkscape:connector-curvature="0"
     id="path23"
     d="m -16.371461,244.26716 7.5590561,0" />
  <path
     style="fill:#000000;fill-opacity:0;fill-rule:nonzero"
     inkscape:connector-curvature="0"
     id="path25"
     d="m -16.371461,263.18351 7.5590561,0" />
  <path
     style="fill-rule:nonzero;stroke:#ffffff;stroke-width:1;stroke-linecap:butt;stroke-linejoin:round"
     inkscape:connector-curvature="0"
     id="path27"
     d="m -16.371461,263.18351 7.5590561,0" />
  <path
     style="fill:#000000;fill-opacity:0;fill-rule:nonzero"
     inkscape:connector-curvature="0"
     id="path29"
     d="m -13.48915,440.7671 7.559055,0" />
  <path
     style="fill-rule:nonzero;stroke:#ffffff;stroke-width:1;stroke-linecap:butt;stroke-linejoin:round"
     inkscape:connector-curvature="0"
     id="path31"
     d="m -13.48915,440.7671 7.559055,0" />
  <path
     style="fill:#000000;fill-opacity:0;fill-rule:nonzero"
     inkscape:connector-curvature="0"
     id="path33"
     d="m -13.48915,459.68348 7.559055,0" />
  <path
     style="fill-rule:nonzero;stroke:#ffffff;stroke-width:1;stroke-linecap:butt;stroke-linejoin:round"
     inkscape:connector-curvature="0"
     id="path35"
     d="m -13.48915,459.68348 7.559055,0" />
  <path
     style="fill:#000000;fill-opacity:0;fill-rule:nonzero"
     inkscape:connector-curvature="0"
     id="path41"
     d="m 955.62853,66.6004 7.55902,0" />
  <path
     style="fill-rule:nonzero;stroke:#ffffff;stroke-width:1;stroke-linecap:butt;stroke-linejoin:round"
     inkscape:connector-curvature="0"
     id="path43"
     d="m 955.62853,66.6004 7.55902,0" />
  <path
     style="fill:#000000;fill-opacity:0;fill-rule:nonzero"
     inkscape:connector-curvature="0"
     id="path45"
     d="m 955.62853,244.26716 7.55902,0" />
  <path
     style="fill-rule:nonzero;stroke:#ffffff;stroke-width:1;stroke-linecap:butt;stroke-linejoin:round"
     inkscape:connector-curvature="0"
     id="path47"
     d="m 955.62853,244.26716 7.55902,0" />
  <path
     style="fill:#000000;fill-opacity:0;fill-rule:nonzero"
     inkscape:connector-curvature="0"
     id="path49"
     d="m 955.62853,263.18351 7.55902,0" />
  <path
     style="fill-rule:nonzero;stroke:#ffffff;stroke-width:1;stroke-linecap:butt;stroke-linejoin:round"
     inkscape:connector-curvature="0"
     id="path51"
     d="m 955.62853,263.18351 7.55902,0" />
  <path
     style="fill:#000000;fill-opacity:0;fill-rule:nonzero"
     inkscape:connector-curvature="0"
     id="path53"
     d="m 958.51077,440.7671 7.55908,0" />
  <path
     style="fill-rule:nonzero;stroke:#ffffff;stroke-width:1;stroke-linecap:butt;stroke-linejoin:round"
     inkscape:connector-curvature="0"
     id="path55"
     d="m 958.51077,440.7671 7.55908,0" />
  <path
     style="fill:#000000;fill-opacity:0;fill-rule:nonzero"
     inkscape:connector-curvature="0"
     id="path57"
     d="m 958.51077,459.68348 7.55908,0" />
  <path
     style="fill-rule:nonzero;stroke:#ffffff;stroke-width:1;stroke-linecap:butt;stroke-linejoin:round"
     inkscape:connector-curvature="0"
     id="path59"
     d="m 958.51077,459.68348 7.55908,0" />
  <path
     style="fill:#000000;fill-opacity:0;fill-rule:nonzero"
     inkscape:connector-curvature="0"
     id="path105"
     d="m 414.8003,456.8402 0,7.55902" />
  <path
     style="fill-rule:nonzero;stroke:#ffffff;stroke-width:1;stroke-linecap:butt;stroke-linejoin:round"
     inkscape:connector-curvature="0"
     id="path107"
     d="m 414.8003,456.8402 0,7.55902" />
  <path
     style="fill:#000000;fill-opacity:0;fill-rule:nonzero"
     inkscape:connector-curvature="0"
     id="path109"
     d="m 395.88398,456.8402 0,7.55902" />
  <path
     style="fill-rule:nonzero;stroke:#ffffff;stroke-width:1;stroke-linecap:butt;stroke-linejoin:round"
     inkscape:connector-curvature="0"
     id="path111"
     d="m 395.88398,456.8402 0,7.55902" />
  <path
     style="fill:#000000;fill-opacity:0;fill-rule:nonzero"
     inkscape:connector-curvature="0"
     id="path113"
     d="m 229.8339,456.8402 0,7.55902" />
  <path
     style="fill-rule:nonzero;stroke:#ffffff;stroke-width:1;stroke-linecap:butt;stroke-linejoin:round"
     inkscape:connector-curvature="0"
     id="path115"
     d="m 229.8339,456.8402 0,7.55902" />
  <path
     style="fill:#000000;fill-opacity:0;fill-rule:nonzero"
     inkscape:connector-curvature="0"
     id="path117"
     d="m 210.91757,456.8402 0,7.55902" />
  <path
     style="fill-rule:nonzero;stroke:#ffffff;stroke-width:1;stroke-linecap:butt;stroke-linejoin:round"
     inkscape:connector-curvature="0"
     id="path119"
     d="m 210.91757,456.8402 0,7.55902" />
  <path
     style="fill:#000000;fill-opacity:0;fill-rule:nonzero"
     inkscape:connector-curvature="0"
     id="path121"
     d="m 44.350557,459.72247 0,7.55908" />
  <path
     style="fill-rule:nonzero;stroke:#ffffff;stroke-width:1;stroke-linecap:butt;stroke-linejoin:round"
     inkscape:connector-curvature="0"
     id="path123"
     d="m 44.350557,459.72247 0,7.55908" />
  <path
     style="fill:#000000;fill-opacity:0;fill-rule:nonzero"
     inkscape:connector-curvature="0"
     id="path125"
     d="m 25.434219,459.72247 0,7.55908" />
  <path
     style="fill-rule:nonzero;stroke:#ffffff;stroke-width:1;stroke-linecap:butt;stroke-linejoin:round"
     inkscape:connector-curvature="0"
     id="path127"
     d="m 25.434219,459.72247 0,7.55908" />
  <path
     style="fill:#000000;fill-opacity:0;fill-rule:nonzero"
     inkscape:connector-curvature="0"
     id="path129"
     d="m 600.25028,456.8402 0,7.55902" />
  <path
     style="fill-rule:nonzero;stroke:#ffffff;stroke-width:1;stroke-linecap:butt;stroke-linejoin:round"
     inkscape:connector-curvature="0"
     id="path131"
     d="m 600.25028,456.8402 0,7.55902" />
  <path
     style="fill:#000000;fill-opacity:0;fill-rule:nonzero"
     inkscape:connector-curvature="0"
     id="path133"
     d="m 581.33402,456.8402 0,7.55902" />
  <path
     style="fill-rule:nonzero;stroke:#ffffff;stroke-width:1;stroke-linecap:butt;stroke-linejoin:round"
     inkscape:connector-curvature="0"
     id="path135"
     d="m 581.33402,456.8402 0,7.55902" />
  <path
     style="fill:#000000;fill-opacity:0;fill-rule:nonzero"
     inkscape:connector-curvature="0"
     id="path137"
     d="m 785.41678,456.8402 0,7.55902" />
  <path
     style="fill-rule:nonzero;stroke:#ffffff;stroke-width:1;stroke-linecap:butt;stroke-linejoin:round"
     inkscape:connector-curvature="0"
     id="path139"
     d="m 785.41678,456.8402 0,7.55902" />
  <path
     style="fill:#000000;fill-opacity:0;fill-rule:nonzero"
     inkscape:connector-curvature="0"
     id="path141"
     d="m 766.50048,456.8402 0,7.55902" />
  <path
     style="fill-rule:nonzero;stroke:#ffffff;stroke-width:1;stroke-linecap:butt;stroke-linejoin:round"
     inkscape:connector-curvature="0"
     id="path143"
     d="m 766.50048,456.8402 0,7.55902" />
  <path
     style="fill:#000000;fill-opacity:0;fill-rule:nonzero"
     inkscape:connector-curvature="0"
     id="path145"
     d="m 947.91673,456.8402 0,7.55902" />
  <path
     style="fill-rule:nonzero;stroke:#ffffff;stroke-width:1;stroke-linecap:butt;stroke-linejoin:round"
     inkscape:connector-curvature="0"
     id="path147"
     d="m 947.91673,456.8402 0,7.55902" />
  <path
     style="fill:#ffffff;fill-rule:nonzero"
     inkscape:connector-curvature="0"
     id="path149"
     d="m 761.58117,187.93405 151.21259,0 0,17.35432 -151.21259,0 z" />
  <path
     style="fill:#0b275f;fill-rule:nonzero"
     inkscape:connector-curvature="0"
     id="path166"
     d="m 12.520403,4.492033 925.448837,0 0,458.024157 -925.448837,0 z" />
  <path
     style="fill-rule:nonzero;stroke:#ffffff;stroke-width:2.14049292;stroke-linecap:butt;stroke-linejoin:round"
     inkscape:connector-curvature="0"
     id="path168"
     d="m 12.590649,4.2775384 925.308341,0 0,458.1684016 -925.308341,0 z" />
  <path
     style="fill:#000000;fill-opacity:0;fill-rule:nonzero"
     inkscape:connector-curvature="0"
     id="path170"
     d="m 383.48101,427.95576 183.52759,0 0,21.85831 -183.52759,0 z" />
  <path
     style="fill:#ffffff;fill-rule:nonzero"
     inkscape:connector-curvature="0"
     id="path172"
     d="m 401.99685,445.80491 0,-1.67187 6.96875,-8.70313 q 0.75,-0.9375 1.42188,-1.625 l -7.59375,0 0,-1.59375 9.73437,0 0,1.59375 -7.625,9.4375 -0.82812,0.95313 8.6875,0 0,1.60937 -10.76563,0 z m 12.28659,-11.6875 0,-1.90625 1.67188,0 0,1.90625 -1.67188,0 z m 0,11.6875 0,-9.85937 1.67188,0 0,9.85937 -1.67188,0 z m 4.12921,3.78125 0,-13.64062 1.53125,0 0,1.28125 q 0.53125,-0.75 1.20313,-1.125 0.6875,-0.375 1.64062,-0.375 1.26563,0 2.23438,0.65625 0.96875,0.64062 1.45312,1.82812 0.5,1.1875 0.5,2.59375 0,1.51563 -0.54687,2.73438 -0.54688,1.20312 -1.57813,1.84375 -1.03125,0.64062 -2.17187,0.64062 -0.84375,0 -1.51563,-0.34375 -0.65625,-0.35937 -1.07812,-0.89062 l 0,4.79687 -1.67188,0 z m 1.51563,-8.65625 q 0,1.90625 0.76562,2.8125 0.78125,0.90625 1.875,0.90625 1.10938,0 1.89063,-0.9375 0.79687,-0.9375 0.79687,-2.92187 0,-1.875 -0.78125,-2.8125 -0.76562,-0.9375 -1.84375,-0.9375 -1.0625,0 -1.89062,1 -0.8125,1 -0.8125,2.89062 z m 15.87152,4.875 -3.01563,-9.85937 1.71875,0 1.5625,5.6875 0.59375,2.125 q 0.0312,-0.15625 0.5,-2.03125 l 1.57813,-5.78125 1.71875,0 1.46875,5.71875 0.48437,1.89062 0.57813,-1.90625 1.6875,-5.70312 1.625,0 -3.07813,9.85937 -1.73437,0 -1.57813,-5.90625 -0.375,-1.67187 -2,7.57812 -1.73437,0 z m 11.66043,-11.6875 0,-1.90625 1.67187,0 0,1.90625 -1.67187,0 z m 0,11.6875 0,-9.85937 1.67187,0 0,9.85937 -1.67187,0 z m 7.78546,-1.5 0.23438,1.48438 q -0.70313,0.14062 -1.26563,0.14062 -0.90625,0 -1.40625,-0.28125 -0.5,-0.29687 -0.70312,-0.75 -0.20313,-0.46875 -0.20313,-1.98437 l 0,-5.65625 -1.23437,0 0,-1.3125 1.23437,0 0,-2.4375 1.65625,-1 0,3.4375 1.6875,0 0,1.3125 -1.6875,0 0,5.75 q 0,0.71875 0.0781,0.92187 0.0937,0.20313 0.29687,0.32813 0.20313,0.125 0.57813,0.125 0.26562,0 0.73437,-0.0781 z m 1.52704,1.5 0,-13.59375 1.67187,0 0,4.875 q 1.17188,-1.35937 2.95313,-1.35937 1.09375,0 1.89062,0.4375 0.8125,0.42187 1.15625,1.1875 0.35938,0.76562 0.35938,2.20312 l 0,6.25 -1.67188,0 0,-6.25 q 0,-1.25 -0.54687,-1.8125 -0.54688,-0.57812 -1.53125,-0.57812 -0.75,0 -1.40625,0.39062 -0.64063,0.375 -0.92188,1.04688 -0.28125,0.65625 -0.28125,1.8125 l 0,5.39062 -1.67187,0 z m 15.71527,0 0,-13.59375 2.71875,0 3.21875,9.625 q 0.4375,1.34375 0.64063,2.01563 0.23437,-0.75 0.73437,-2.1875 l 3.25,-9.45313 2.42188,0 0,13.59375 -1.73438,0 0,-11.39062 -3.95312,11.39062 -1.625,0 -3.9375,-11.57812 0,11.57812 -1.73438,0 z m 22.13455,-3.17187 1.71875,0.21875 q -0.40625,1.5 -1.51562,2.34375 -1.09375,0.82812 -2.8125,0.82812 -2.15625,0 -3.42188,-1.32812 -1.26562,-1.32813 -1.26562,-3.73438 0,-2.48437 1.26562,-3.85937 1.28125,-1.375 3.32813,-1.375 1.98437,0 3.23437,1.34375 1.25,1.34375 1.25,3.79687 0,0.14063 -0.0156,0.4375 l -7.34375,0 q 0.0937,1.625 0.92187,2.48438 0.82813,0.85937 2.0625,0.85937 0.90625,0 1.54688,-0.46875 0.65625,-0.48437 1.04687,-1.54687 z m -5.48437,-2.70313 5.5,0 q -0.10938,-1.23437 -0.625,-1.85937 -0.79688,-0.96875 -2.07813,-0.96875 -1.14062,0 -1.9375,0.78125 -0.78125,0.76562 -0.85937,2.04687 z m 12.76635,4.375 0.23438,1.48438 q -0.70313,0.14062 -1.26563,0.14062 -0.90625,0 -1.40625,-0.28125 -0.5,-0.29687 -0.70312,-0.75 -0.20313,-0.46875 -0.20313,-1.98437 l 0,-5.65625 -1.23437,0 0,-1.3125 1.23437,0 0,-2.4375 1.65625,-1 0,3.4375 1.6875,0 0,1.3125 -1.6875,0 0,5.75 q 0,0.71875 0.0781,0.92187 0.0937,0.20313 0.29687,0.32813 0.20313,0.125 0.57813,0.125 0.26562,0 0.73437,-0.0781 z m 7.96454,0.28125 q -0.9375,0.79688 -1.79687,1.125 -0.85938,0.3125 -1.84375,0.3125 -1.60938,0 -2.48438,-0.78125 -0.875,-0.79687 -0.875,-2.03125 0,-0.73437 0.32813,-1.32812 0.32812,-0.59375 0.85937,-0.95313 0.53125,-0.35937 1.20313,-0.54687 0.5,-0.14063 1.48437,-0.25 2.03125,-0.25 2.98438,-0.57813 0,-0.34375 0,-0.4375 0,-1.01562 -0.46875,-1.4375 -0.64063,-0.5625 -1.90625,-0.5625 -1.17188,0 -1.73438,0.40625 -0.5625,0.40625 -0.82812,1.46875 l -1.64063,-0.23437 q 0.23438,-1.04688 0.73438,-1.6875 0.51562,-0.64063 1.46875,-0.98438 0.96875,-0.35937 2.25,-0.35937 1.26562,0 2.04687,0.29687 0.78125,0.29688 1.15625,0.75 0.375,0.45313 0.51563,1.14063 0.0937,0.42187 0.0937,1.53125 l 0,2.23437 q 0,2.32813 0.0937,2.95313 0.10937,0.60937 0.4375,1.17187 l -1.75,0 q -0.26563,-0.51562 -0.32813,-1.21875 z m -0.14062,-3.71875 q -0.90625,0.35938 -2.73438,0.625 -1.03125,0.14063 -1.45312,0.32813 -0.42188,0.1875 -0.65625,0.54687 -0.23438,0.35938 -0.23438,0.79688 0,0.67187 0.5,1.125 0.51563,0.4375 1.48438,0.4375 0.96875,0 1.71875,-0.42188 0.75,-0.4375 1.10937,-1.15625 0.26563,-0.57812 0.26563,-1.67187 l 0,-0.60938 z m 10.46948,4.9375 0,-1.25 q -0.9375,1.46875 -2.75,1.46875 -1.17188,0 -2.17188,-0.64062 -0.98437,-0.65625 -1.53125,-1.8125 -0.53125,-1.17188 -0.53125,-2.6875 0,-1.46875 0.48438,-2.67188 0.5,-1.20312 1.46875,-1.84375 0.98437,-0.64062 2.20312,-0.64062 0.89063,0 1.57813,0.375 0.70312,0.375 1.14062,0.98437 l 0,-4.875 1.65625,0 0,13.59375 -1.54687,0 z m -5.28125,-4.92187 q 0,1.89062 0.79687,2.82812 0.8125,0.9375 1.89063,0.9375 1.09375,0 1.85937,-0.89062 0.76563,-0.89063 0.76563,-2.73438 0,-2.01562 -0.78125,-2.95312 -0.78125,-0.95313 -1.92188,-0.95313 -1.10937,0 -1.85937,0.90625 -0.75,0.90625 -0.75,2.85938 z m 15.70386,3.70312 q -0.9375,0.79688 -1.79688,1.125 -0.85937,0.3125 -1.84375,0.3125 -1.60937,0 -2.48437,-0.78125 -0.875,-0.79687 -0.875,-2.03125 0,-0.73437 0.32812,-1.32812 0.32813,-0.59375 0.85938,-0.95313 0.53125,-0.35937 1.20312,-0.54687 0.5,-0.14063 1.48438,-0.25 2.03125,-0.25 2.98437,-0.57813 0,-0.34375 0,-0.4375 0,-1.01562 -0.46875,-1.4375 -0.64062,-0.5625 -1.90625,-0.5625 -1.17187,0 -1.73437,0.40625 -0.5625,0.40625 -0.82813,1.46875 l -1.64062,-0.23437 q 0.23437,-1.04688 0.73437,-1.6875 0.51563,-0.64063 1.46875,-0.98438 0.96875,-0.35937 2.25,-0.35937 1.26563,0 2.04688,0.29687 0.78125,0.29688 1.15625,0.75 0.375,0.45313 0.51562,1.14063 0.0937,0.42187 0.0937,1.53125 l 0,2.23437 q 0,2.32813 0.0937,2.95313 0.10938,0.60937 0.4375,1.17187 l -1.75,0 q -0.26562,-0.51562 -0.32812,-1.21875 z m -0.14063,-3.71875 q -0.90625,0.35938 -2.73437,0.625 -1.03125,0.14063 -1.45313,0.32813 -0.42187,0.1875 -0.65625,0.54687 -0.23437,0.35938 -0.23437,0.79688 0,0.67187 0.5,1.125 0.51562,0.4375 1.48437,0.4375 0.96875,0 1.71875,-0.42188 0.75,-0.4375 1.10938,-1.15625 0.26562,-0.57812 0.26562,-1.67187 l 0,-0.60938 z m 7.73505,3.4375 0.23437,1.48438 q -0.70312,0.14062 -1.26562,0.14062 -0.90625,0 -1.40625,-0.28125 -0.5,-0.29687 -0.70313,-0.75 -0.20312,-0.46875 -0.20312,-1.98437 l 0,-5.65625 -1.23438,0 0,-1.3125 1.23438,0 0,-2.4375 1.65625,-1 0,3.4375 1.6875,0 0,1.3125 -1.6875,0 0,5.75 q 0,0.71875 0.0781,0.92187 0.0937,0.20313 0.29688,0.32813 0.20312,0.125 0.57812,0.125 0.26563,0 0.73438,-0.0781 z m 7.9646,0.28125 q -0.9375,0.79688 -1.79688,1.125 -0.85937,0.3125 -1.84375,0.3125 -1.60937,0 -2.48437,-0.78125 -0.875,-0.79687 -0.875,-2.03125 0,-0.73437 0.32812,-1.32812 0.32813,-0.59375 0.85938,-0.95313 0.53125,-0.35937 1.20312,-0.54687 0.5,-0.14063 1.48438,-0.25 2.03125,-0.25 2.98437,-0.57813 0,-0.34375 0,-0.4375 0,-1.01562 -0.46875,-1.4375 -0.64062,-0.5625 -1.90625,-0.5625 -1.17187,0 -1.73437,0.40625 -0.5625,0.40625 -0.82813,1.46875 l -1.64062,-0.23437 q 0.23437,-1.04688 0.73437,-1.6875 0.51563,-0.64063 1.46875,-0.98438 0.96875,-0.35937 2.25,-0.35937 1.26563,0 2.04688,0.29687 0.78125,0.29688 1.15625,0.75 0.375,0.45313 0.51562,1.14063 0.0937,0.42187 0.0937,1.53125 l 0,2.23437 q 0,2.32813 0.0937,2.95313 0.10938,0.60937 0.4375,1.17187 l -1.75,0 q -0.26562,-0.51562 -0.32812,-1.21875 z m -0.14063,-3.71875 q -0.90625,0.35938 -2.73437,0.625 -1.03125,0.14063 -1.45313,0.32813 -0.42187,0.1875 -0.65625,0.54687 -0.23437,0.35938 -0.23437,0.79688 0,0.67187 0.5,1.125 0.51562,0.4375 1.48437,0.4375 0.96875,0 1.71875,-0.42188 0.75,-0.4375 1.10938,-1.15625 0.26562,-0.57812 0.26562,-1.67187 l 0,-0.60938 z" />
  <path
     style="fill:#0d2f75;fill-rule:nonzero"
     inkscape:connector-curvature="0"
     id="path174"
     d="m 62.65951,20.980828 825.13384,0 0,393.669262 -825.13384,0 z" />
  <path
     style="fill-rule:nonzero;stroke:#ffffff;stroke-width:2.12211919;stroke-linecap:butt;stroke-linejoin:round"
     inkscape:connector-curvature="0"
     id="path176"
     d="m 62.72057,18.76396 825.01172,0 0,395.82507 -825.01172,0 z" />
  <path
     style="fill:#000000;fill-opacity:0;fill-rule:nonzero"
     inkscape:connector-curvature="0"
     id="path178"
     d="m 383.48101,378.66844 183.52759,0 0,21.85825 -183.52759,0 z" />
  <path
     style="fill:#ffffff;fill-rule:nonzero"
     inkscape:connector-curvature="0"
     id="path180"
     d="m 407.38667,391.18943 0,-1.60937 5.76562,0 0,5.04687 q -1.32812,1.0625 -2.75,1.59375 -1.40625,0.53125 -2.89062,0.53125 -2,0 -3.64063,-0.85937 -1.625,-0.85938 -2.46875,-2.48438 -0.82812,-1.625 -0.82812,-3.625 0,-1.98437 0.82812,-3.70312 0.82813,-1.71875 2.39063,-2.54688 1.5625,-0.84375 3.59375,-0.84375 1.46875,0 2.65625,0.48438 1.20312,0.46875 1.875,1.32812 0.67187,0.84375 1.03125,2.21875 l -1.625,0.4375 q -0.3125,-1.03125 -0.76563,-1.625 -0.45312,-0.59375 -1.29687,-0.95312 -0.84375,-0.35938 -1.875,-0.35938 -1.23438,0 -2.14063,0.375 -0.89062,0.375 -1.45312,1 -0.54688,0.60938 -0.84375,1.34375 -0.53125,1.25 -0.53125,2.73438 0,1.8125 0.625,3.04687 0.64062,1.21875 1.82812,1.8125 1.20313,0.59375 2.54688,0.59375 1.17187,0 2.28125,-0.45312 1.10937,-0.45313 1.6875,-0.95313 l 0,-2.53125 -4,0 z m 7.05829,5.32813 0,-1.67188 6.96875,-8.70312 q 0.75,-0.9375 1.42187,-1.625 l -7.59375,0 0,-1.59375 9.73438,0 0,1.59375 -7.625,9.4375 -0.82813,0.95312 8.6875,0 0,1.60938 -10.76562,0 z m 12.28662,-11.6875 0,-1.90625 1.67187,0 0,1.90625 -1.67187,0 z m 0,11.6875 0,-9.85938 1.67187,0 0,9.85938 -1.67187,0 z m 4.12918,3.78125 0,-13.64063 1.53125,0 0,1.28125 q 0.53125,-0.75 1.20313,-1.125 0.6875,-0.375 1.64062,-0.375 1.26563,0 2.23438,0.65625 0.96875,0.64063 1.45312,1.82813 0.5,1.1875 0.5,2.59375 0,1.51562 -0.54687,2.73437 -0.54688,1.20313 -1.57813,1.84375 -1.03125,0.64063 -2.17187,0.64063 -0.84375,0 -1.51563,-0.34375 -0.65625,-0.35938 -1.07812,-0.89063 l 0,4.79688 -1.67188,0 z m 1.51563,-8.65625 q 0,1.90625 0.76562,2.8125 0.78125,0.90625 1.875,0.90625 1.10938,0 1.89063,-0.9375 0.79687,-0.9375 0.79687,-2.92188 0,-1.875 -0.78125,-2.8125 -0.76562,-0.9375 -1.84375,-0.9375 -1.0625,0 -1.89062,1 -0.8125,1 -0.8125,2.89063 z m 23.96527,0.10937 1.79687,0.45313 q -0.5625,2.21875 -2.03125,3.39062 -1.46875,1.15625 -3.59375,1.15625 -2.20312,0 -3.57812,-0.89062 -1.375,-0.90625 -2.09375,-2.59375 -0.71875,-1.70313 -0.71875,-3.65625 0,-2.125 0.79687,-3.70313 0.8125,-1.57812 2.3125,-2.39062 1.5,-0.82813 3.29688,-0.82813 2.04687,0 3.4375,1.04688 1.39062,1.03125 1.9375,2.90625 l -1.76563,0.42187 q -0.46875,-1.48437 -1.375,-2.15625 -0.90625,-0.6875 -2.26562,-0.6875 -1.5625,0 -2.625,0.75 -1.04688,0.75 -1.48438,2.03125 -0.42187,1.26563 -0.42187,2.60938 0,1.73437 0.5,3.03125 0.51562,1.28125 1.57812,1.92187 1.07813,0.64063 2.3125,0.64063 1.51563,0 2.5625,-0.85938 1.04688,-0.875 1.42188,-2.59375 z m 2.92608,-0.15625 q 0,-2.73437 1.53125,-4.0625 1.26563,-1.09375 3.09375,-1.09375 2.03125,0 3.3125,1.34375 1.29688,1.32813 1.29688,3.67188 0,1.90625 -0.57813,3 -0.5625,1.07812 -1.65625,1.6875 -1.07812,0.59375 -2.375,0.59375 -2.0625,0 -3.34375,-1.32813 -1.28125,-1.32812 -1.28125,-3.8125 z m 1.71875,0 q 0,1.89063 0.82813,2.82813 0.82812,0.9375 2.07812,0.9375 1.25,0 2.0625,-0.9375 0.82813,-0.95313 0.82813,-2.89063 0,-1.82812 -0.82813,-2.76562 -0.82812,-0.9375 -2.0625,-0.9375 -1.25,0 -2.07812,0.9375 -0.82813,0.9375 -0.82813,2.82812 z m 9.28196,4.92188 0,-9.85938 1.5,0 0,1.39063 q 0.45312,-0.71875 1.21875,-1.15625 0.78125,-0.45313 1.76562,-0.45313 1.09375,0 1.79688,0.45313 0.70312,0.45312 0.98437,1.28125 1.17188,-1.73438 3.04688,-1.73438 1.46875,0 2.25,0.8125 0.79687,0.8125 0.79687,2.5 l 0,6.76563 -1.67187,0 0,-6.20313 q 0,-1 -0.15625,-1.4375 -0.15625,-0.45312 -0.59375,-0.71875 -0.42188,-0.26562 -1,-0.26562 -1.03125,0 -1.71875,0.6875 -0.6875,0.6875 -0.6875,2.21875 l 0,5.71875 -1.67188,0 0,-6.40625 q 0,-1.10938 -0.40625,-1.65625 -0.40625,-0.5625 -1.34375,-0.5625 -0.70312,0 -1.3125,0.375 -0.59375,0.35937 -0.85937,1.07812 -0.26563,0.71875 -0.26563,2.0625 l 0,5.10938 -1.67187,0 z m 15.5408,3.78125 0,-13.64063 1.53125,0 0,1.28125 q 0.53125,-0.75 1.20312,-1.125 0.6875,-0.375 1.64063,-0.375 1.26562,0 2.23437,0.65625 0.96875,0.64063 1.45313,1.82813 0.5,1.1875 0.5,2.59375 0,1.51562 -0.54688,2.73437 -0.54687,1.20313 -1.57812,1.84375 -1.03125,0.64063 -2.17188,0.64063 -0.84375,0 -1.51562,-0.34375 -0.65625,-0.35938 -1.07813,-0.89063 l 0,4.79688 -1.67187,0 z m 1.51562,-8.65625 q 0,1.90625 0.76563,2.8125 0.78125,0.90625 1.875,0.90625 1.10937,0 1.89062,-0.9375 0.79688,-0.9375 0.79688,-2.92188 0,-1.875 -0.78125,-2.8125 -0.76563,-0.9375 -1.84375,-0.9375 -1.0625,0 -1.89063,1 -0.8125,1 -0.8125,2.89063 z m 8.84448,4.875 0,-9.85938 1.5,0 0,1.5 q 0.57813,-1.04687 1.0625,-1.375 0.48438,-0.34375 1.07813,-0.34375 0.84375,0 1.71875,0.54688 l -0.57813,1.54687 q -0.60937,-0.35937 -1.23437,-0.35937 -0.54688,0 -0.98438,0.32812 -0.42187,0.32813 -0.60937,0.90625 -0.28125,0.89063 -0.28125,1.95313 l 0,5.15625 -1.67188,0 z m 12.97828,-3.17188 1.71875,0.21875 q -0.40625,1.5 -1.51563,2.34375 -1.09375,0.82813 -2.8125,0.82813 -2.15622,0 -3.42184,-1.32813 -1.26563,-1.32812 -1.26563,-3.73437 0,-2.48438 1.26563,-3.85938 1.28125,-1.375 3.32809,-1.375 1.98438,0 3.23438,1.34375 1.25,1.34375 1.25,3.79688 0,0.14062 -0.0156,0.4375 l -7.34372,0 q 0.0937,1.625 0.92188,2.48437 0.82812,0.85938 2.06247,0.85938 0.90625,0 1.54687,-0.46875 0.65625,-0.48438 1.04688,-1.54688 z m -5.48435,-2.70312 5.49997,0 q -0.10937,-1.23438 -0.625,-1.85938 -0.79687,-0.96875 -2.07812,-0.96875 -1.1406,0 -1.93747,0.78125 -0.78125,0.76563 -0.85938,2.04688 z m 8.4382,2.9375 1.65625,-0.26563 q 0.14063,1 0.76563,1.53125 0.64062,0.51563 1.78125,0.51563 1.15625,0 1.70312,-0.46875 0.5625,-0.46875 0.5625,-1.09375 0,-0.5625 -0.48437,-0.89063 -0.34375,-0.21875 -1.70313,-0.5625 -1.84375,-0.46875 -2.5625,-0.79687 -0.70312,-0.34375 -1.07812,-0.9375 -0.35938,-0.60938 -0.35938,-1.32813 0,-0.65625 0.29688,-1.21875 0.3125,-0.5625 0.82812,-0.9375 0.39063,-0.28125 1.0625,-0.48437 0.67188,-0.20313 1.4375,-0.20313 1.17188,0 2.04688,0.34375 0.875,0.32813 1.28125,0.90625 0.42187,0.5625 0.57812,1.51563 l -1.625,0.21875 q -0.10937,-0.75 -0.65625,-1.17188 -0.53125,-0.4375 -1.5,-0.4375 -1.15625,0 -1.64062,0.39063 -0.48438,0.375 -0.48438,0.875 0,0.32812 0.20313,0.59375 0.20312,0.26562 0.64062,0.4375 0.25,0.0937 1.46875,0.4375 1.76563,0.46875 2.46875,0.76562 0.70313,0.29688 1.09375,0.875 0.40625,0.57813 0.40625,1.4375 0,0.82813 -0.48437,1.57813 -0.48438,0.73437 -1.40625,1.14062 -0.92188,0.39063 -2.07813,0.39063 -1.92187,0 -2.9375,-0.79688 -1,-0.79687 -1.28125,-2.35937 z m 9.32813,0 1.65625,-0.26563 q 0.14062,1 0.76562,1.53125 0.64063,0.51563 1.78125,0.51563 1.15625,0 1.70313,-0.46875 0.5625,-0.46875 0.5625,-1.09375 0,-0.5625 -0.48438,-0.89063 -0.34375,-0.21875 -1.70312,-0.5625 -1.84375,-0.46875 -2.5625,-0.79687 -0.70313,-0.34375 -1.07813,-0.9375 -0.35937,-0.60938 -0.35937,-1.32813 0,-0.65625 0.29687,-1.21875 0.3125,-0.5625 0.82813,-0.9375 0.39062,-0.28125 1.0625,-0.48437 0.67187,-0.20313 1.4375,-0.20313 1.17187,0 2.04687,0.34375 0.875,0.32813 1.28125,0.90625 0.42188,0.5625 0.57813,1.51563 l -1.625,0.21875 q -0.10938,-0.75 -0.65625,-1.17188 -0.53125,-0.4375 -1.5,-0.4375 -1.15625,0 -1.64063,0.39063 -0.48437,0.375 -0.48437,0.875 0,0.32812 0.20312,0.59375 0.20313,0.26562 0.64063,0.4375 0.25,0.0937 1.46875,0.4375 1.76562,0.46875 2.46875,0.76562 0.70312,0.29688 1.09375,0.875 0.40625,0.57813 0.40625,1.4375 0,0.82813 -0.48438,1.57813 -0.48437,0.73437 -1.40625,1.14062 -0.92187,0.39063 -2.07812,0.39063 -1.92188,0 -2.9375,-0.79688 -1,-0.79687 -1.28125,-2.35937 z m 16.75,-0.23438 1.71875,0.21875 q -0.40625,1.5 -1.51563,2.34375 -1.09375,0.82813 -2.8125,0.82813 -2.15625,0 -3.42187,-1.32813 -1.26563,-1.32812 -1.26563,-3.73437 0,-2.48438 1.26563,-3.85938 1.28125,-1.375 3.32812,-1.375 1.98438,0 3.23438,1.34375 1.25,1.34375 1.25,3.79688 0,0.14062 -0.0156,0.4375 l -7.34375,0 q 0.0937,1.625 0.92188,2.48437 0.82812,0.85938 2.0625,0.85938 0.90625,0 1.54687,-0.46875 0.65625,-0.48438 1.04688,-1.54688 z m -5.48438,-2.70312 5.5,0 q -0.10937,-1.23438 -0.625,-1.85938 -0.79687,-0.96875 -2.07812,-0.96875 -1.14063,0 -1.9375,0.78125 -0.78125,0.76563 -0.85938,2.04688 z m 15.50074,5.875 0,-1.25 q -0.9375,1.46875 -2.75,1.46875 -1.17188,0 -2.17188,-0.64063 -0.98437,-0.65625 -1.53125,-1.8125 -0.53125,-1.17187 -0.53125,-2.6875 0,-1.46875 0.48438,-2.67187 0.5,-1.20313 1.46875,-1.84375 0.98437,-0.64063 2.20312,-0.64063 0.89063,0 1.57813,0.375 0.70312,0.375 1.14062,0.98438 l 0,-4.875 1.65625,0 0,13.59375 -1.54687,0 z m -5.28125,-4.92188 q 0,1.89063 0.79687,2.82813 0.8125,0.9375 1.89063,0.9375 1.09375,0 1.85937,-0.89063 0.76563,-0.89062 0.76563,-2.73437 0,-2.01563 -0.78125,-2.95313 -0.78125,-0.95312 -1.92188,-0.95312 -1.10937,0 -1.85937,0.90625 -0.75,0.90625 -0.75,2.85937 z" />
  <path
     style="fill:#000000;fill-opacity:0;fill-rule:nonzero"
     inkscape:connector-curvature="0"
     id="path186"
     d="m 923.61173,421.37643 35.24408,0 0,18.96063 -35.24408,0 z" />
  <path
     style="fill:#000000;fill-opacity:0;fill-rule:nonzero"
     inkscape:connector-curvature="0"
     id="path190"
     d="m 31.97972,-4.922121 721.98424,0 0,54.740151 -721.98424,0 z" />
  <path
     style="fill:#10398e;fill-rule:nonzero"
     inkscape:connector-curvature="0"
     id="path194"
     d="m 110.50727,37.007694 728.4725,0 0,328.274906 -728.4725,0 z" />
  <path
     style="fill-rule:nonzero;stroke:#ffffff;stroke-width:2.08452749;stroke-linecap:butt;stroke-linejoin:round"
     inkscape:connector-curvature="0"
     id="path196"
     d="m 110.54953,37.049954 728.38798,0 0,328.190386 -728.38798,0 z" />
  <path
     style="fill:#000000;fill-opacity:0;fill-rule:nonzero"
     inkscape:connector-curvature="0"
     id="path198"
     d="m 354.40227,329.71043 241.66931,0 0,21.85825 -241.66931,0 z" />
  <path
     style="fill:#ffffff;fill-rule:nonzero"
     inkscape:connector-curvature="0"
     id="path200"
     d="m 380.19152,343.18455 1.6875,-0.14063 q 0.125,1.01563 0.5625,1.67188 0.4375,0.65625 1.35937,1.0625 0.9375,0.40625 2.09375,0.40625 1.03125,0 1.8125,-0.3125 0.79688,-0.3125 1.1875,-0.84375 0.39063,-0.53125 0.39063,-1.15625 0,-0.64063 -0.375,-1.10938 -0.375,-0.48437 -1.23438,-0.8125 -0.54687,-0.21875 -2.42187,-0.65625 -1.875,-0.45312 -2.625,-0.85937 -0.96875,-0.51563 -1.45313,-1.26563 -0.46875,-0.75 -0.46875,-1.6875 0,-1.03125 0.57813,-1.92187 0.59375,-0.90625 1.70312,-1.35938 1.125,-0.46875 2.5,-0.46875 1.51563,0 2.67188,0.48438 1.15625,0.48437 1.76562,1.4375 0.625,0.9375 0.67188,2.14062 l -1.71875,0.125 q -0.14063,-1.28125 -0.95313,-1.9375 -0.79687,-0.67187 -2.35937,-0.67187 -1.625,0 -2.375,0.60937 -0.75,0.59375 -0.75,1.4375 0,0.73438 0.53125,1.20313 0.51562,0.46875 2.70312,0.96875 2.20313,0.5 3.01563,0.875 1.1875,0.54687 1.75,1.39062 0.57812,0.82813 0.57812,1.92188 0,1.09375 -0.625,2.0625 -0.625,0.95312 -1.79687,1.48437 -1.15625,0.53125 -2.60938,0.53125 -1.84375,0 -3.09375,-0.53125 -1.25,-0.54687 -1.96875,-1.625 -0.70312,-1.07812 -0.73437,-2.45312 z m 19.5842,1.20312 1.71875,0.21875 q -0.40625,1.5 -1.51563,2.34375 -1.09375,0.82813 -2.8125,0.82813 -2.15625,0 -3.42187,-1.32813 -1.26563,-1.32812 -1.26563,-3.73437 0,-2.48438 1.26563,-3.85938 1.28125,-1.375 3.32812,-1.375 1.98438,0 3.23438,1.34375 1.25,1.34375 1.25,3.79688 0,0.14062 -0.0156,0.4375 l -7.34375,0 q 0.0937,1.625 0.92188,2.48437 0.82812,0.85938 2.0625,0.85938 0.90625,0 1.54687,-0.46875 0.65625,-0.48438 1.04688,-1.54688 z m -5.48438,-2.70312 5.5,0 q -0.10937,-1.23438 -0.625,-1.85938 -0.79687,-0.96875 -2.07812,-0.96875 -1.14063,0 -1.9375,0.78125 -0.78125,0.76563 -0.85938,2.04688 z m 9.07883,5.875 0,-13.59375 1.67187,0 0,13.59375 -1.67187,0 z m 4.58234,0 0,-8.54688 -1.48438,0 0,-1.3125 1.48438,0 0,-1.04687 q 0,-0.98438 0.17187,-1.46875 0.23438,-0.65625 0.84375,-1.04688 0.60938,-0.40625 1.70313,-0.40625 0.70312,0 1.5625,0.15625 l -0.25,1.46875 q -0.51563,-0.0937 -0.98438,-0.0937 -0.76562,0 -1.07812,0.32813 -0.3125,0.3125 -0.3125,1.20312 l 0,0.90625 1.92187,0 0,1.3125 -1.92187,0 0,8.54688 -1.65625,0 z m 4.13641,-4.07813 0,-1.6875 5.125,0 0,1.6875 -5.125,0 z m 7.07205,4.07813 0,-13.59375 4.6875,0 q 1.57813,0 2.42188,0.1875 1.15625,0.26562 1.98437,0.96875 1.07813,0.92187 1.60938,2.34375 0.53125,1.40625 0.53125,3.21875 0,1.54687 -0.35938,2.75 -0.35937,1.1875 -0.92187,1.98437 -0.5625,0.78125 -1.23438,1.23438 -0.67187,0.4375 -1.625,0.67187 -0.95312,0.23438 -2.1875,0.23438 l -4.90625,0 z m 1.79688,-1.60938 2.90625,0 q 1.34375,0 2.10937,-0.25 0.76563,-0.25 1.21875,-0.70312 0.64063,-0.64063 1,-1.71875 0.35938,-1.07813 0.35938,-2.625 0,-2.125 -0.70313,-3.26563 -0.70312,-1.15625 -1.70312,-1.54687 -0.71875,-0.28125 -2.32813,-0.28125 l -2.85937,0 0,10.39062 z m 18.20733,-1.5625 1.71875,0.21875 q -0.40625,1.5 -1.51562,2.34375 -1.09375,0.82813 -2.8125,0.82813 -2.15625,0 -3.42188,-1.32813 -1.26562,-1.32812 -1.26562,-3.73437 0,-2.48438 1.26562,-3.85938 1.28125,-1.375 3.32813,-1.375 1.98437,0 3.23437,1.34375 1.25,1.34375 1.25,3.79688 0,0.14062 -0.0156,0.4375 l -7.34375,0 q 0.0937,1.625 0.92187,2.48437 0.82813,0.85938 2.0625,0.85938 0.90625,0 1.54688,-0.46875 0.65625,-0.48438 1.04687,-1.54688 z m -5.48437,-2.70312 5.5,0 q -0.10938,-1.23438 -0.625,-1.85938 -0.79688,-0.96875 -2.07813,-0.96875 -1.14062,0 -1.9375,0.78125 -0.78125,0.76563 -0.85937,2.04688 z m 8.4382,2.9375 1.65625,-0.26563 q 0.14062,1 0.76562,1.53125 0.64063,0.51563 1.78125,0.51563 1.15625,0 1.70313,-0.46875 0.5625,-0.46875 0.5625,-1.09375 0,-0.5625 -0.48438,-0.89063 -0.34375,-0.21875 -1.70312,-0.5625 -1.84375,-0.46875 -2.5625,-0.79687 -0.70313,-0.34375 -1.07813,-0.9375 -0.35937,-0.60938 -0.35937,-1.32813 0,-0.65625 0.29687,-1.21875 0.3125,-0.5625 0.82813,-0.9375 0.39062,-0.28125 1.0625,-0.48437 0.67187,-0.20313 1.4375,-0.20313 1.17187,0 2.04687,0.34375 0.875,0.32813 1.28125,0.90625 0.42188,0.5625 0.57813,1.51563 l -1.625,0.21875 q -0.10938,-0.75 -0.65625,-1.17188 -0.53125,-0.4375 -1.5,-0.4375 -1.15625,0 -1.64063,0.39063 -0.48437,0.375 -0.48437,0.875 0,0.32812 0.20312,0.59375 0.20313,0.26562 0.64063,0.4375 0.25,0.0937 1.46875,0.4375 1.76562,0.46875 2.46875,0.76562 0.70312,0.29688 1.09375,0.875 0.40625,0.57813 0.40625,1.4375 0,0.82813 -0.48438,1.57813 -0.48437,0.73437 -1.40625,1.14062 -0.92187,0.39063 -2.07812,0.39063 -1.92188,0 -2.9375,-0.79688 -1,-0.79687 -1.28125,-2.35937 z m 16.4375,-0.67188 1.64062,0.21875 q -0.26562,1.6875 -1.375,2.65625 -1.10937,0.95313 -2.73437,0.95313 -2.01563,0 -3.25,-1.3125 -1.21875,-1.32813 -1.21875,-3.79688 0,-1.59375 0.51562,-2.78125 0.53125,-1.20312 1.60938,-1.79687 1.09375,-0.60938 2.35937,-0.60938 1.60938,0 2.625,0.8125 1.01563,0.8125 1.3125,2.3125 l -1.625,0.25 q -0.23437,-1 -0.82812,-1.5 -0.59375,-0.5 -1.42188,-0.5 -1.26562,0 -2.0625,0.90625 -0.78125,0.90625 -0.78125,2.85938 0,1.98437 0.76563,2.89062 0.76562,0.89063 1.98437,0.89063 0.98438,0 1.64063,-0.59375 0.65625,-0.60938 0.84375,-1.85938 z m 2.875,3.60938 0,-9.85938 1.5,0 0,1.5 q 0.57812,-1.04687 1.0625,-1.375 0.48437,-0.34375 1.07812,-0.34375 0.84375,0 1.71875,0.54688 l -0.57812,1.54687 q -0.60938,-0.35937 -1.23438,-0.35937 -0.54687,0 -0.98437,0.32812 -0.42188,0.32813 -0.60938,0.90625 -0.28125,0.89063 -0.28125,1.95313 l 0,5.15625 -1.67187,0 z m 6.24393,-11.6875 0,-1.90625 1.67187,0 0,1.90625 -1.67187,0 z m 0,11.6875 0,-9.85938 1.67187,0 0,9.85938 -1.67187,0 z m 5.67608,0 -1.54687,0 0,-13.59375 1.65625,0 0,4.84375 q 1.0625,-1.32813 2.70312,-1.32813 0.90625,0 1.71875,0.375 0.8125,0.35938 1.32813,1.03125 0.53125,0.65625 0.82812,1.59375 0.29688,0.9375 0.29688,2 0,2.53125 -1.25,3.92188 -1.25,1.375 -3,1.375 -1.75,0 -2.73438,-1.45313 l 0,1.23438 z m -0.0156,-5 q 0,1.76562 0.46875,2.5625 0.79687,1.28125 2.14062,1.28125 1.09375,0 1.89063,-0.9375 0.79687,-0.95313 0.79687,-2.84375 0,-1.92188 -0.76562,-2.84375 -0.76563,-0.92188 -1.84375,-0.92188 -1.09375,0 -1.89063,0.95313 -0.79687,0.95312 -0.79687,2.75 z m 8.86008,-6.6875 0,-1.90625 1.67187,0 0,1.90625 -1.67187,0 z m 0,11.6875 0,-9.85938 1.67187,0 0,9.85938 -1.67187,0 z m 4.12921,0 0,-9.85938 1.5,0 0,1.40625 q 1.09375,-1.625 3.14062,-1.625 0.89063,0 1.64063,0.32813 0.75,0.3125 1.10937,0.84375 0.375,0.51562 0.53125,1.21875 0.0937,0.46875 0.0937,1.625 l 0,6.0625 -1.67187,0 0,-6 q 0,-1.01563 -0.20313,-1.51563 -0.1875,-0.51562 -0.6875,-0.8125 -0.5,-0.29687 -1.17187,-0.29687 -1.0625,0 -1.84375,0.67187 -0.76563,0.67188 -0.76563,2.57813 l 0,5.375 -1.67187,0 z m 10.07882,0.8125 1.60938,0.25 q 0.10937,0.75 0.57812,1.09375 0.60938,0.45312 1.6875,0.45312 1.17188,0 1.79688,-0.46875 0.625,-0.45312 0.85937,-1.28125 0.125,-0.51562 0.10938,-2.15625 -1.09375,1.29688 -2.71875,1.29688 -2.03125,0 -3.15625,-1.46875 -1.10938,-1.46875 -1.10938,-3.51563 0,-1.40625 0.51563,-2.59375 0.51562,-1.20312 1.48437,-1.84375 0.96875,-0.65625 2.26563,-0.65625 1.75,0 2.875,1.40625 l 0,-1.1875 1.54687,0 0,8.51563 q 0,2.3125 -0.46875,3.26562 -0.46875,0.96875 -1.48437,1.51563 -1.01563,0.5625 -2.5,0.5625 -1.76563,0 -2.85938,-0.79688 -1.07812,-0.79687 -1.03125,-2.39062 z m 1.375,-5.92188 q 0,1.95313 0.76563,2.84375 0.78125,0.89063 1.9375,0.89063 1.14062,0 1.92187,-0.89063 0.78125,-0.89062 0.78125,-2.78125 0,-1.8125 -0.8125,-2.71875 -0.79687,-0.92187 -1.92187,-0.92187 -1.10938,0 -1.89063,0.90625 -0.78125,0.89062 -0.78125,2.67187 z m 14.09031,0.73438 1.6875,-0.14063 q 0.125,1.01563 0.5625,1.67188 0.4375,0.65625 1.35937,1.0625 0.9375,0.40625 2.09375,0.40625 1.03125,0 1.8125,-0.3125 0.79688,-0.3125 1.1875,-0.84375 0.39063,-0.53125 0.39063,-1.15625 0,-0.64063 -0.375,-1.10938 -0.375,-0.48437 -1.23438,-0.8125 -0.54687,-0.21875 -2.42187,-0.65625 -1.875,-0.45312 -2.625,-0.85937 -0.96875,-0.51563 -1.45313,-1.26563 -0.46875,-0.75 -0.46875,-1.6875 0,-1.03125 0.57813,-1.92187 0.59375,-0.90625 1.70312,-1.35938 1.125,-0.46875 2.5,-0.46875 1.51563,0 2.67188,0.48438 1.15625,0.48437 1.76562,1.4375 0.625,0.9375 0.67188,2.14062 l -1.71875,0.125 q -0.14063,-1.28125 -0.95313,-1.9375 -0.79687,-0.67187 -2.35937,-0.67187 -1.625,0 -2.375,0.60937 -0.75,0.59375 -0.75,1.4375 0,0.73438 0.53125,1.20313 0.51562,0.46875 2.70312,0.96875 2.20313,0.5 3.01563,0.875 1.1875,0.54687 1.75,1.39062 0.57812,0.82813 0.57812,1.92188 0,1.09375 -0.625,2.0625 -0.625,0.95312 -1.79687,1.48437 -1.15625,0.53125 -2.60938,0.53125 -1.84375,0 -3.09375,-0.53125 -1.25,-0.54687 -1.96875,-1.625 -0.70312,-1.07812 -0.73437,-2.45312 z m 16.49041,2.875 0.23438,1.48437 q -0.70313,0.14063 -1.26563,0.14063 -0.90625,0 -1.40625,-0.28125 -0.5,-0.29688 -0.70312,-0.75 -0.20313,-0.46875 -0.20313,-1.98438 l 0,-5.65625 -1.23437,0 0,-1.3125 1.23437,0 0,-2.4375 1.65625,-1 0,3.4375 1.6875,0 0,1.3125 -1.6875,0 0,5.75 q 0,0.71875 0.0781,0.92188 0.0937,0.20312 0.29687,0.32812 0.20313,0.125 0.57813,0.125 0.26562,0 0.73437,-0.0781 z m 1.51148,1.5 0,-9.85938 1.5,0 0,1.5 q 0.57812,-1.04687 1.0625,-1.375 0.48437,-0.34375 1.07812,-0.34375 0.84375,0 1.71875,0.54688 l -0.57812,1.54687 q -0.60938,-0.35937 -1.23438,-0.35937 -0.54687,0 -0.98437,0.32812 -0.42188,0.32813 -0.60938,0.90625 -0.28125,0.89063 -0.28125,1.95313 l 0,5.15625 -1.67187,0 z m 12.97827,-3.17188 1.71875,0.21875 q -0.40625,1.5 -1.51563,2.34375 -1.09375,0.82813 -2.8125,0.82813 -2.15625,0 -3.42187,-1.32813 -1.26563,-1.32812 -1.26563,-3.73437 0,-2.48438 1.26563,-3.85938 1.28125,-1.375 3.32812,-1.375 1.98438,0 3.23438,1.34375 1.25,1.34375 1.25,3.79688 0,0.14062 -0.0156,0.4375 l -7.34375,0 q 0.0937,1.625 0.92188,2.48437 0.82812,0.85938 2.0625,0.85938 0.90625,0 1.54687,-0.46875 0.65625,-0.48438 1.04688,-1.54688 z m -5.48438,-2.70312 5.5,0 q -0.10937,-1.23438 -0.625,-1.85938 -0.79687,-0.96875 -2.07812,-0.96875 -1.14063,0 -1.9375,0.78125 -0.78125,0.76563 -0.85938,2.04688 z m 15.54761,4.65625 q -0.9375,0.79687 -1.79687,1.125 -0.85938,0.3125 -1.84375,0.3125 -1.60938,0 -2.48438,-0.78125 -0.875,-0.79688 -0.875,-2.03125 0,-0.73438 0.32813,-1.32813 0.32812,-0.59375 0.85937,-0.95312 0.53125,-0.35938 1.20313,-0.54688 0.5,-0.14062 1.48437,-0.25 2.03125,-0.25 2.98438,-0.57812 0,-0.34375 0,-0.4375 0,-1.01563 -0.46875,-1.4375 -0.64063,-0.5625 -1.90625,-0.5625 -1.17188,0 -1.73438,0.40625 -0.5625,0.40625 -0.82812,1.46875 l -1.64063,-0.23438 q 0.23438,-1.04687 0.73438,-1.6875 0.51562,-0.64062 1.46875,-0.98437 0.96875,-0.35938 2.25,-0.35938 1.26562,0 2.04687,0.29688 0.78125,0.29687 1.15625,0.75 0.375,0.45312 0.51563,1.14062 0.0937,0.42188 0.0937,1.53125 l 0,2.23438 q 0,2.32812 0.0937,2.95312 0.10937,0.60938 0.4375,1.17188 l -1.75,0 q -0.26563,-0.51563 -0.32813,-1.21875 z m -0.14062,-3.71875 q -0.90625,0.35937 -2.73438,0.625 -1.03125,0.14062 -1.45312,0.32812 -0.42188,0.1875 -0.65625,0.54688 -0.23438,0.35937 -0.23438,0.79687 0,0.67188 0.5,1.125 0.51563,0.4375 1.48438,0.4375 0.96875,0 1.71875,-0.42187 0.75,-0.4375 1.10937,-1.15625 0.26563,-0.57813 0.26563,-1.67188 l 0,-0.60937 z m 4.07885,4.9375 0,-9.85938 1.5,0 0,1.39063 q 0.45313,-0.71875 1.21875,-1.15625 0.78125,-0.45313 1.76563,-0.45313 1.09375,0 1.79687,0.45313 0.70313,0.45312 0.98438,1.28125 1.17187,-1.73438 3.04687,-1.73438 1.46875,0 2.25,0.8125 0.79688,0.8125 0.79688,2.5 l 0,6.76563 -1.67188,0 0,-6.20313 q 0,-1 -0.15625,-1.4375 -0.15625,-0.45312 -0.59375,-0.71875 -0.42187,-0.26562 -1,-0.26562 -1.03125,0 -1.71875,0.6875 -0.6875,0.6875 -0.6875,2.21875 l 0,5.71875 -1.67187,0 0,-6.40625 q 0,-1.10938 -0.40625,-1.65625 -0.40625,-0.5625 -1.34375,-0.5625 -0.70313,0 -1.3125,0.375 -0.59375,0.35937 -0.85938,1.07812 -0.26562,0.71875 -0.26562,2.0625 l 0,5.10938 -1.67188,0 z" />
  <path
     style="fill:#1345aa;fill-rule:nonzero"
     inkscape:connector-curvature="0"
     id="path202"
     d="m 159.33142,53.26814 631.77954,0 0,263.76249 -631.77954,0 z" />
  <path
     style="fill-rule:nonzero;stroke:#ffffff;stroke-width:2.04419184;stroke-linecap:butt;stroke-linejoin:round"
     inkscape:connector-curvature="0"
     id="path204"
     d="m 159.35352,52.15128 631.73534,0 0,264.85725 -631.73534,0 z" />
  <path
     style="fill:#000000;fill-opacity:0;fill-rule:nonzero"
     inkscape:connector-curvature="0"
     id="path206"
     d="m 394.7225,282.80491 161.00784,0 0,21.85828 -161.00784,0 z" />
  <path
     style="fill:#ffffff;fill-rule:nonzero"
     inkscape:connector-curvature="0"
     id="path208"
     d="m 406.62587,296.27903 1.6875,-0.14063 q 0.125,1.01563 0.5625,1.67188 0.4375,0.65625 1.35937,1.0625 0.9375,0.40625 2.09375,0.40625 1.03125,0 1.8125,-0.3125 0.79688,-0.3125 1.1875,-0.84375 0.39063,-0.53125 0.39063,-1.15625 0,-0.64063 -0.375,-1.10938 -0.375,-0.48437 -1.23438,-0.8125 -0.54687,-0.21875 -2.42187,-0.65625 -1.875,-0.45312 -2.625,-0.85937 -0.96875,-0.51563 -1.45313,-1.26563 -0.46875,-0.75 -0.46875,-1.6875 0,-1.03125 0.57813,-1.92187 0.59375,-0.90625 1.70312,-1.35938 1.125,-0.46875 2.5,-0.46875 1.51563,0 2.67188,0.48438 1.15625,0.48437 1.76562,1.4375 0.625,0.9375 0.67188,2.14062 l -1.71875,0.125 q -0.14063,-1.28125 -0.95313,-1.9375 -0.79687,-0.67187 -2.35937,-0.67187 -1.625,0 -2.375,0.60937 -0.75,0.59375 -0.75,1.4375 0,0.73438 0.53125,1.20313 0.51562,0.46875 2.70312,0.96875 2.20313,0.5 3.01563,0.875 1.1875,0.54687 1.75,1.39062 0.57812,0.82813 0.57812,1.92188 0,1.09375 -0.625,2.0625 -0.625,0.95312 -1.79687,1.48437 -1.15625,0.53125 -2.60938,0.53125 -1.84375,0 -3.09375,-0.53125 -1.25,-0.54687 -1.96875,-1.625 -0.70312,-1.07812 -0.73437,-2.45312 z m 12.8342,4.375 0,-9.85938 1.5,0 0,1.39063 q 0.45312,-0.71875 1.21875,-1.15625 0.78125,-0.45313 1.76562,-0.45313 1.09375,0 1.79688,0.45313 0.70312,0.45312 0.98437,1.28125 1.17188,-1.73438 3.04688,-1.73438 1.46875,0 2.25,0.8125 0.79687,0.8125 0.79687,2.5 l 0,6.76563 -1.67187,0 0,-6.20313 q 0,-1 -0.15625,-1.4375 -0.15625,-0.45312 -0.59375,-0.71875 -0.42188,-0.26562 -1,-0.26562 -1.03125,0 -1.71875,0.6875 -0.6875,0.6875 -0.6875,2.21875 l 0,5.71875 -1.67188,0 0,-6.40625 q 0,-1.10938 -0.40625,-1.65625 -0.40625,-0.5625 -1.34375,-0.5625 -0.70312,0 -1.3125,0.375 -0.59375,0.35937 -0.85937,1.07812 -0.26563,0.71875 -0.26563,2.0625 l 0,5.10938 -1.67187,0 z m 21.9783,-1.21875 q -0.9375,0.79687 -1.79688,1.125 -0.85937,0.3125 -1.84375,0.3125 -1.60937,0 -2.48437,-0.78125 -0.875,-0.79688 -0.875,-2.03125 0,-0.73438 0.32812,-1.32813 0.32813,-0.59375 0.85938,-0.95312 0.53125,-0.35938 1.20312,-0.54688 0.5,-0.14062 1.48438,-0.25 2.03125,-0.25 2.98437,-0.57812 0,-0.34375 0,-0.4375 0,-1.01563 -0.46875,-1.4375 -0.64062,-0.5625 -1.90625,-0.5625 -1.17187,0 -1.73437,0.40625 -0.5625,0.40625 -0.82813,1.46875 l -1.64062,-0.23438 q 0.23437,-1.04687 0.73437,-1.6875 0.51563,-0.64062 1.46875,-0.98437 0.96875,-0.35938 2.25,-0.35938 1.26563,0 2.04688,0.29688 0.78125,0.29687 1.15625,0.75 0.375,0.45312 0.51562,1.14062 0.0937,0.42188 0.0937,1.53125 l 0,2.23438 q 0,2.32812 0.0937,2.95312 0.10938,0.60938 0.4375,1.17188 l -1.75,0 q -0.26562,-0.51563 -0.32812,-1.21875 z m -0.14063,-3.71875 q -0.90625,0.35937 -2.73437,0.625 -1.03125,0.14062 -1.45313,0.32812 -0.42187,0.1875 -0.65625,0.54688 -0.23437,0.35937 -0.23437,0.79687 0,0.67188 0.5,1.125 0.51562,0.4375 1.48437,0.4375 0.96875,0 1.71875,-0.42187 0.75,-0.4375 1.10938,-1.15625 0.26562,-0.57813 0.26562,-1.67188 l 0,-0.60937 z m 4.06324,4.9375 0,-9.85938 1.5,0 0,1.5 q 0.57812,-1.04687 1.0625,-1.375 0.48437,-0.34375 1.07812,-0.34375 0.84375,0 1.71875,0.54688 l -0.57812,1.54687 q -0.60938,-0.35937 -1.23438,-0.35937 -0.54687,0 -0.98437,0.32812 -0.42188,0.32813 -0.60938,0.90625 -0.28125,0.89063 -0.28125,1.95313 l 0,5.15625 -1.67187,0 z m 9.88455,-1.5 0.23437,1.48437 q -0.70312,0.14063 -1.26562,0.14063 -0.90625,0 -1.40625,-0.28125 -0.5,-0.29688 -0.70313,-0.75 -0.20312,-0.46875 -0.20312,-1.98438 l 0,-5.65625 -1.23438,0 0,-1.3125 1.23438,0 0,-2.4375 1.65625,-1 0,3.4375 1.6875,0 0,1.3125 -1.6875,0 0,5.75 q 0,0.71875 0.0781,0.92188 0.0937,0.20312 0.29688,0.32812 0.20312,0.125 0.57812,0.125 0.26563,0 0.73438,-0.0781 z m 1.77704,1.5 0,-13.59375 6.03125,0 q 1.8125,0 2.75,0.35937 0.95312,0.35938 1.51562,1.29688 0.5625,0.92187 0.5625,2.04687 0,1.45313 -0.9375,2.45313 -0.92187,0.98437 -2.89062,1.25 0.71875,0.34375 1.09375,0.67187 0.78125,0.73438 1.48437,1.8125 l 2.375,3.70313 -2.26562,0 -1.79688,-2.82813 q -0.79687,-1.21875 -1.3125,-1.875 -0.5,-0.65625 -0.90625,-0.90625 -0.40625,-0.26562 -0.8125,-0.35937 -0.3125,-0.0781 -1.01562,-0.0781 l -2.07813,0 0,6.04688 -1.79687,0 z m 1.79687,-7.59375 3.85938,0 q 1.23437,0 1.92187,-0.25 0.70313,-0.26563 1.0625,-0.82813 0.375,-0.5625 0.375,-1.21875 0,-0.96875 -0.70312,-1.57812 -0.70313,-0.625 -2.21875,-0.625 l -4.29688,0 0,4.5 z m 18.17609,4.42187 1.71875,0.21875 q -0.40625,1.5 -1.51563,2.34375 -1.09375,0.82813 -2.8125,0.82813 -2.15625,0 -3.42187,-1.32813 -1.26563,-1.32812 -1.26563,-3.73437 0,-2.48438 1.26563,-3.85938 1.28125,-1.375 3.32812,-1.375 1.98438,0 3.23438,1.34375 1.25,1.34375 1.25,3.79688 0,0.14062 -0.0156,0.4375 l -7.34375,0 q 0.0937,1.625 0.92188,2.48437 0.82812,0.85938 2.0625,0.85938 0.90625,0 1.54687,-0.46875 0.65625,-0.48438 1.04688,-1.54688 z m -5.48438,-2.70312 5.5,0 q -0.10937,-1.23438 -0.625,-1.85938 -0.79687,-0.96875 -2.07812,-0.96875 -1.14063,0 -1.9375,0.78125 -0.78125,0.76563 -0.85938,2.04688 z m 9.51633,5.875 0,-8.54688 -1.48437,0 0,-1.3125 1.48437,0 0,-1.04687 q 0,-0.98438 0.17188,-1.46875 0.23437,-0.65625 0.84375,-1.04688 0.60937,-0.40625 1.70312,-0.40625 0.70313,0 1.5625,0.15625 l -0.25,1.46875 q -0.51562,-0.0937 -0.98437,-0.0937 -0.76563,0 -1.07813,0.32813 -0.3125,0.3125 -0.3125,1.20312 l 0,0.90625 1.92188,0 0,1.3125 -1.92188,0 0,8.54688 -1.65625,0 z m 4.38644,-4.375 1.6875,-0.14063 q 0.125,1.01563 0.5625,1.67188 0.4375,0.65625 1.35938,1.0625 0.9375,0.40625 2.09375,0.40625 1.03125,0 1.8125,-0.3125 0.79687,-0.3125 1.1875,-0.84375 0.39062,-0.53125 0.39062,-1.15625 0,-0.64063 -0.375,-1.10938 -0.375,-0.48437 -1.23437,-0.8125 -0.54688,-0.21875 -2.42188,-0.65625 -1.875,-0.45312 -2.625,-0.85937 -0.96875,-0.51563 -1.45312,-1.26563 -0.46875,-0.75 -0.46875,-1.6875 0,-1.03125 0.57812,-1.92187 0.59375,-0.90625 1.70313,-1.35938 1.125,-0.46875 2.5,-0.46875 1.51562,0 2.67187,0.48438 1.15625,0.48437 1.76563,1.4375 0.625,0.9375 0.67187,2.14062 l -1.71875,0.125 q -0.14062,-1.28125 -0.95312,-1.9375 -0.79688,-0.67187 -2.35938,-0.67187 -1.625,0 -2.375,0.60937 -0.75,0.59375 -0.75,1.4375 0,0.73438 0.53125,1.20313 0.51563,0.46875 2.70313,0.96875 2.20312,0.5 3.01562,0.875 1.1875,0.54687 1.75,1.39062 0.57813,0.82813 0.57813,1.92188 0,1.09375 -0.625,2.0625 -0.625,0.95312 -1.79688,1.48437 -1.15625,0.53125 -2.60937,0.53125 -1.84375,0 -3.09375,-0.53125 -1.25,-0.54687 -1.96875,-1.625 -0.70313,-1.07812 -0.73438,-2.45312 z m 16.49045,2.875 0.23438,1.48437 q -0.70313,0.14063 -1.26563,0.14063 -0.90625,0 -1.40625,-0.28125 -0.5,-0.29688 -0.70312,-0.75 -0.20313,-0.46875 -0.20313,-1.98438 l 0,-5.65625 -1.23437,0 0,-1.3125 1.23437,0 0,-2.4375 1.65625,-1 0,3.4375 1.6875,0 0,1.3125 -1.6875,0 0,5.75 q 0,0.71875 0.0781,0.92188 0.0937,0.20312 0.29687,0.32812 0.20313,0.125 0.57813,0.125 0.26562,0 0.73437,-0.0781 z m 1.51142,1.5 0,-9.85938 1.5,0 0,1.5 q 0.57812,-1.04687 1.0625,-1.375 0.4844,-0.34375 1.07815,-0.34375 0.84375,0 1.71875,0.54688 l -0.57812,1.54687 q -0.60938,-0.35937 -1.23438,-0.35937 -0.54687,0 -0.9844,0.32812 -0.42188,0.32813 -0.60938,0.90625 -0.28125,0.89063 -0.28125,1.95313 l 0,5.15625 -1.67187,0 z m 12.9783,-3.17188 1.71875,0.21875 q -0.40625,1.5 -1.51563,2.34375 -1.09375,0.82813 -2.8125,0.82813 -2.15625,0 -3.42187,-1.32813 -1.26563,-1.32812 -1.26563,-3.73437 0,-2.48438 1.26563,-3.85938 1.28125,-1.375 3.32812,-1.375 1.98438,0 3.23438,1.34375 1.25,1.34375 1.25,3.79688 0,0.14062 -0.0156,0.4375 l -7.34375,0 q 0.0937,1.625 0.92188,2.48437 0.82812,0.85938 2.0625,0.85938 0.90625,0 1.54687,-0.46875 0.65625,-0.48438 1.04688,-1.54688 z m -5.48438,-2.70312 5.5,0 q -0.10937,-1.23438 -0.625,-1.85938 -0.79687,-0.96875 -2.07812,-0.96875 -1.14063,0 -1.9375,0.78125 -0.78125,0.76563 -0.85938,2.04688 z m 15.54761,4.65625 q -0.9375,0.79687 -1.79687,1.125 -0.85938,0.3125 -1.84375,0.3125 -1.60938,0 -2.48438,-0.78125 -0.875,-0.79688 -0.875,-2.03125 0,-0.73438 0.32813,-1.32813 0.32812,-0.59375 0.85937,-0.95312 0.53125,-0.35938 1.20313,-0.54688 0.5,-0.14062 1.48437,-0.25 2.03125,-0.25 2.98438,-0.57812 0,-0.34375 0,-0.4375 0,-1.01563 -0.46875,-1.4375 -0.64063,-0.5625 -1.90625,-0.5625 -1.17188,0 -1.73438,0.40625 -0.5625,0.40625 -0.82812,1.46875 l -1.64063,-0.23438 q 0.23438,-1.04687 0.73438,-1.6875 0.51562,-0.64062 1.46875,-0.98437 0.96875,-0.35938 2.25,-0.35938 1.26562,0 2.04687,0.29688 0.78125,0.29687 1.15625,0.75 0.375,0.45312 0.51563,1.14062 0.0937,0.42188 0.0937,1.53125 l 0,2.23438 q 0,2.32812 0.0937,2.95312 0.10937,0.60938 0.4375,1.17188 l -1.75,0 q -0.26563,-0.51563 -0.32813,-1.21875 z m -0.14062,-3.71875 q -0.90625,0.35937 -2.73438,0.625 -1.03125,0.14062 -1.45312,0.32812 -0.42188,0.1875 -0.65625,0.54688 -0.23438,0.35937 -0.23438,0.79687 0,0.67188 0.5,1.125 0.51563,0.4375 1.48438,0.4375 0.96875,0 1.71875,-0.42187 0.75,-0.4375 1.10937,-1.15625 0.26563,-0.57813 0.26563,-1.67188 l 0,-0.60937 z m 4.07885,4.9375 0,-9.85938 1.5,0 0,1.39063 q 0.45313,-0.71875 1.21875,-1.15625 0.78125,-0.45313 1.76563,-0.45313 1.09375,0 1.79687,0.45313 0.70313,0.45312 0.98438,1.28125 1.17187,-1.73438 3.04687,-1.73438 1.46875,0 2.25,0.8125 0.79688,0.8125 0.79688,2.5 l 0,6.76563 -1.67188,0 0,-6.20313 q 0,-1 -0.15625,-1.4375 -0.15625,-0.45312 -0.59375,-0.71875 -0.42187,-0.26562 -1,-0.26562 -1.03125,0 -1.71875,0.6875 -0.6875,0.6875 -0.6875,2.21875 l 0,5.71875 -1.67187,0 0,-6.40625 q 0,-1.10938 -0.40625,-1.65625 -0.40625,-0.5625 -1.34375,-0.5625 -0.70313,0 -1.3125,0.375 -0.59375,0.35937 -0.85938,1.07812 -0.26562,0.71875 -0.26562,2.0625 l 0,5.10938 -1.67188,0 z" />
  <path
     style="fill:#1855d3;fill-rule:nonzero"
     inkscape:connector-curvature="0"
     id="path210"
     d="m 207.17918,63.82328 536.0945,0 0,204.97638 -536.0945,0 z" />
  <path
     style="fill-rule:nonzero;stroke:#ffffff;stroke-width:2;stroke-linecap:butt;stroke-linejoin:round"
     inkscape:connector-curvature="0"
     id="path212"
     d="m 207.17918,63.82328 536.0945,0 0,204.97638 -536.0945,0 z" />
  <path
     style="fill:#000000;fill-opacity:0;fill-rule:nonzero"
     inkscape:connector-curvature="0"
     id="path214"
     d="m 345.89309,155.38233 258.67715,0 0,21.85828 -258.67715,0 z" />
  <path
     style="fill:#ffffff;fill-rule:nonzero"
     inkscape:connector-curvature="0"
     id="path216"
     d="m 369.70825,178.03148 0,-22.90625 3.03125,0 0,22.90625 -3.03125,0 z m 8.01562,0 0,-16.59375 2.51563,0 0,2.32812 q 0.78125,-1.21875 2.07812,-1.95312 1.29688,-0.75 2.95313,-0.75 1.84375,0 3.01562,0.76562 1.1875,0.76563 1.67188,2.14063 1.96875,-2.90625 5.125,-2.90625 2.46875,0 3.79687,1.375 1.32813,1.35937 1.32813,4.20312 l 0,11.39063 -2.79688,0 0,-10.45313 q 0,-1.6875 -0.28125,-2.42187 -0.26562,-0.75 -0.98437,-1.20313 -0.71875,-0.45312 -1.6875,-0.45312 -1.75,0 -2.90625,1.17187 -1.15625,1.15625 -1.15625,3.71875 l 0,9.64063 -2.8125,0 0,-10.78125 q 0,-1.875 -0.6875,-2.8125 -0.6875,-0.9375 -2.25,-0.9375 -1.1875,0 -2.20313,0.625 -1,0.625 -1.45312,1.82812 -0.45313,1.20313 -0.45313,3.46875 l 0,8.60938 -2.8125,0 z m 37.48438,-2.04688 q -1.5625,1.32813 -3.01563,1.875 -1.4375,0.54688 -3.09375,0.54688 -2.73437,0 -4.20312,-1.32813 -1.46875,-1.34375 -1.46875,-3.42187 0,-1.21875 0.54687,-2.21875 0.5625,-1.01563 1.45313,-1.625 0.90625,-0.60938 2.03125,-0.92188 0.82812,-0.21875 2.5,-0.42187 3.40625,-0.40625 5.01562,-0.96875 0.0156,-0.57813 0.0156,-0.73438 0,-1.71875 -0.79688,-2.42187 -1.07812,-0.95313 -3.20312,-0.95313 -1.98438,0 -2.9375,0.70313 -0.9375,0.6875 -1.39063,2.45312 l -2.75,-0.375 q 0.375,-1.76562 1.23438,-2.84375 0.85937,-1.09375 2.48437,-1.67187 1.625,-0.59375 3.76563,-0.59375 2.125,0 3.45312,0.5 1.32813,0.5 1.95313,1.26562 0.625,0.75 0.875,1.90625 0.14062,0.71875 0.14062,2.59375 l 0,3.75 q 0,3.92188 0.17188,4.96875 0.1875,1.03125 0.71875,1.98438 l -2.9375,0 q -0.4375,-0.875 -0.5625,-2.04688 z m -0.23438,-6.28125 q -1.53125,0.625 -4.59375,1.0625 -1.73437,0.25 -2.45312,0.5625 -0.71875,0.3125 -1.10938,0.92188 -0.39062,0.59375 -0.39062,1.32812 0,1.125 0.84375,1.875 0.85937,0.75 2.5,0.75 1.625,0 2.89062,-0.70312 1.26563,-0.71875 1.85938,-1.95313 0.45312,-0.95312 0.45312,-2.8125 l 0,-1.03125 z m 6.6875,9.70313 2.73438,0.40625 q 0.17187,1.26562 0.95312,1.84375 1.04688,0.78125 2.85938,0.78125 1.95312,0 3.01562,-0.78125 1.0625,-0.78125 1.4375,-2.1875 0.21875,-0.85938 0.20313,-3.60938 -1.84375,2.17188 -4.59375,2.17188 -3.42188,0 -5.29688,-2.46875 -1.875,-2.46875 -1.875,-5.92188 0,-2.375 0.85938,-4.375 0.85937,-2.01562 2.48437,-3.10937 1.64063,-1.09375 3.84375,-1.09375 2.9375,0 4.84375,2.375 l 0,-2 2.59375,0 0,14.34375 q 0,3.875 -0.79687,5.48437 -0.78125,1.625 -2.5,2.5625 -1.70313,0.9375 -4.20313,0.9375 -2.96875,0 -4.79687,-1.34375 -1.82813,-1.32812 -1.76563,-4.01562 z m 2.32813,-9.96875 q 0,3.26562 1.29687,4.76562 1.29688,1.5 3.25,1.5 1.9375,0 3.25,-1.48437 1.3125,-1.5 1.3125,-4.6875 0,-3.04688 -1.35937,-4.59375 -1.34375,-1.54688 -3.25,-1.54688 -1.875,0 -3.1875,1.53125 -1.3125,1.51563 -1.3125,4.51563 z m 27.34375,3.25 2.90625,0.35937 q -0.6875,2.54688 -2.54688,3.95313 -1.85937,1.40625 -4.75,1.40625 -3.64062,0 -5.78125,-2.23438 -2.125,-2.25 -2.125,-6.29687 0,-4.1875 2.15625,-6.5 2.15625,-2.3125 5.59375,-2.3125 3.32813,0 5.4375,2.26562 2.10938,2.26563 2.10938,6.375 0,0.25 -0.0156,0.75 l -12.375,0 q 0.15625,2.73438 1.54688,4.1875 1.39062,1.45313 3.46875,1.45313 1.54687,0 2.64062,-0.8125 1.09375,-0.8125 1.73438,-2.59375 z m -9.23438,-4.54688 9.26563,0 q -0.1875,-2.09375 -1.0625,-3.14062 -1.34375,-1.625 -3.48438,-1.625 -1.9375,0 -3.26562,1.29687 -1.3125,1.29688 -1.45313,3.46875 z m 15,2.53125 2.85938,-0.25 q 0.20312,1.71875 0.9375,2.82813 0.75,1.09375 2.3125,1.78125 1.5625,0.67187 3.51562,0.67187 1.73438,0 3.0625,-0.51562 1.32813,-0.51563 1.96875,-1.40625 0.65625,-0.90625 0.65625,-1.96875 0,-1.07813 -0.625,-1.875 -0.625,-0.8125 -2.0625,-1.35938 -0.92187,-0.35937 -4.07812,-1.10937 -3.15625,-0.76563 -4.42188,-1.4375 -1.64062,-0.85938 -2.45312,-2.125 -0.79688,-1.28125 -0.79688,-2.85938 0,-1.73437 0.98438,-3.23437 0.98437,-1.51563 2.875,-2.29688 1.89062,-0.78125 4.20312,-0.78125 2.54688,0 4.48438,0.82813 1.95312,0.8125 3,2.40625 1.04687,1.59375 1.125,3.60937 l -2.90625,0.21875 q -0.23438,-2.17187 -1.59375,-3.28125 -1.34375,-1.10937 -3.98438,-1.10937 -2.75,0 -4.01562,1.01562 -1.25,1 -1.25,2.42188 0,1.23437 0.89062,2.03125 0.875,0.79687 4.5625,1.64062 3.70313,0.82813 5.07813,1.45313 2,0.92187 2.95312,2.34375 0.95313,1.40625 0.95313,3.25 0,1.82812 -1.04688,3.45312 -1.04687,1.60938 -3.01562,2.51563 -1.95313,0.89062 -4.40625,0.89062 -3.10938,0 -5.21875,-0.90625 -2.09375,-0.90625 -3.29688,-2.71875 -1.1875,-1.82812 -1.25,-4.125 z m 33.375,2.01563 2.90625,0.35937 q -0.6875,2.54688 -2.54687,3.95313 -1.85938,1.40625 -4.75,1.40625 -3.64063,0 -5.78125,-2.23438 -2.125,-2.25 -2.125,-6.29687 0,-4.1875 2.15625,-6.5 2.15625,-2.3125 5.59375,-2.3125 3.32812,0 5.4375,2.26562 2.10937,2.26563 2.10937,6.375 0,0.25 -0.0156,0.75 l -12.375,0 q 0.15625,2.73438 1.54687,4.1875 1.39063,1.45313 3.46875,1.45313 1.54688,0 2.64063,-0.8125 1.09375,-0.8125 1.73437,-2.59375 z m -9.23437,-4.54688 9.26562,0 q -0.1875,-2.09375 -1.0625,-3.14062 -1.34375,-1.625 -3.48437,-1.625 -1.9375,0 -3.26563,1.29687 -1.3125,1.29688 -1.45312,3.46875 z m 15.15625,11.26563 2.73437,0.40625 q 0.17188,1.26562 0.95313,1.84375 1.04687,0.78125 2.85937,0.78125 1.95313,0 3.01563,-0.78125 1.0625,-0.78125 1.4375,-2.1875 0.21875,-0.85938 0.20313,-3.60938 -1.84375,2.17188 -4.59375,2.17188 -3.42188,0 -5.29688,-2.46875 -1.875,-2.46875 -1.875,-5.92188 0,-2.375 0.85938,-4.375 0.85937,-2.01562 2.48437,-3.10937 1.64063,-1.09375 3.84375,-1.09375 2.9375,0 4.84375,2.375 l 0,-2 2.59375,0 0,14.34375 q 0,3.875 -0.79687,5.48437 -0.78125,1.625 -2.5,2.5625 -1.70313,0.9375 -4.20313,0.9375 -2.96875,0 -4.79687,-1.34375 -1.82813,-1.32812 -1.76563,-4.01562 z m 2.32812,-9.96875 q 0,3.26562 1.29688,4.76562 1.29687,1.5 3.25,1.5 1.9375,0 3.25,-1.48437 1.3125,-1.5 1.3125,-4.6875 0,-3.04688 -1.35937,-4.59375 -1.34375,-1.54688 -3.25,-1.54688 -1.875,0 -3.1875,1.53125 -1.3125,1.51563 -1.3125,4.51563 z m 15.98438,8.59375 0,-16.59375 2.51563,0 0,2.32812 q 0.78125,-1.21875 2.07812,-1.95312 1.29688,-0.75 2.95313,-0.75 1.84375,0 3.01562,0.76562 1.1875,0.76563 1.67188,2.14063 1.96875,-2.90625 5.125,-2.90625 2.46875,0 3.79687,1.375 1.32813,1.35937 1.32813,4.20312 l 0,11.39063 -2.79688,0 0,-10.45313 q 0,-1.6875 -0.28125,-2.42187 -0.26562,-0.75 -0.98437,-1.20313 -0.71875,-0.45312 -1.6875,-0.45312 -1.75,0 -2.90625,1.17187 -1.15625,1.15625 -1.15625,3.71875 l 0,9.64063 -2.8125,0 0,-10.78125 q 0,-1.875 -0.6875,-2.8125 -0.6875,-0.9375 -2.25,-0.9375 -1.1875,0 -2.20313,0.625 -1,0.625 -1.45312,1.82812 -0.45313,1.20313 -0.45313,3.46875 l 0,8.60938 -2.8125,0 z m 38.01563,-5.34375 2.90625,0.35937 q -0.6875,2.54688 -2.54688,3.95313 -1.85937,1.40625 -4.75,1.40625 -3.64062,0 -5.78125,-2.23438 -2.125,-2.25 -2.125,-6.29687 0,-4.1875 2.15625,-6.5 2.15625,-2.3125 5.59375,-2.3125 3.32813,0 5.4375,2.26562 2.10938,2.26563 2.10938,6.375 0,0.25 -0.0156,0.75 l -12.375,0 q 0.15625,2.73438 1.54688,4.1875 1.39062,1.45313 3.46875,1.45313 1.54687,0 2.64062,-0.8125 1.09375,-0.8125 1.73438,-2.59375 z m -9.23438,-4.54688 9.26563,0 q -0.1875,-2.09375 -1.0625,-3.14062 -1.34375,-1.625 -3.48438,-1.625 -1.9375,0 -3.26562,1.29687 -1.3125,1.29688 -1.45313,3.46875 z m 15.67188,9.89063 0,-16.59375 2.53125,0 0,2.35937 q 1.82812,-2.73437 5.28125,-2.73437 1.5,0 2.75,0.54687 1.26562,0.53125 1.89062,1.40625 0.625,0.875 0.875,2.07813 0.15625,0.78125 0.15625,2.73437 l 0,10.20313 -2.8125,0 0,-10.09375 q 0,-1.71875 -0.32812,-2.5625 -0.32813,-0.85938 -1.17188,-1.35938 -0.82812,-0.51562 -1.95312,-0.51562 -1.79688,0 -3.10938,1.14062 -1.29687,1.14063 -1.29687,4.32813 l 0,9.0625 -2.8125,0 z m 23.9375,-2.51563 0.40625,2.48438 q -1.1875,0.25 -2.125,0.25 -1.53125,0 -2.375,-0.48438 -0.84375,-0.48437 -1.1875,-1.26562 -0.34375,-0.79688 -0.34375,-3.32813 l 0,-9.54687 -2.0625,0 0,-2.1875 2.0625,0 0,-4.10938 2.79687,-1.6875 0,5.79688 2.82813,0 0,2.1875 -2.82813,0 0,9.70312 q 0,1.20313 0.14063,1.54688 0.15625,0.34375 0.48437,0.54687 0.34375,0.20313 0.96875,0.20313 0.46875,0 1.23438,-0.10938 z" />
</svg>
